<svg xmlns="http://www.w3.org/2000/svg" width="150.848" height="150.848" viewBox="0 0 150.848 150.848">
  <path id="Icon_awesome-user-circle" data-name="Icon awesome-user-circle" d="M75.424.563a75.424,75.424,0,1,0,75.424,75.424A75.411,75.411,0,0,0,75.424.563Zm0,29.2A26.763,26.763,0,1,1,48.661,56.522,26.764,26.764,0,0,1,75.424,29.759Zm0,104.62a58.279,58.279,0,0,1-44.555-20.742A33.909,33.909,0,0,1,60.826,95.451a7.442,7.442,0,0,1,2.159.335,40.267,40.267,0,0,0,12.439,2.1,40.114,40.114,0,0,0,12.439-2.1,7.441,7.441,0,0,1,2.159-.335,33.909,33.909,0,0,1,29.957,18.187A58.279,58.279,0,0,1,75.424,134.379Z" transform="translate(0 -0.563)" fill="#bebebe"/>
</svg>
