<svg xmlns="http://www.w3.org/2000/svg" width="21.873" height="21.873" viewBox="0 0 21.873 21.873">
  <path id="Icon_awesome-question-circle" data-name="Icon awesome-question-circle" d="M22.436,11.5A10.937,10.937,0,1,1,11.5.563,10.936,10.936,0,0,1,22.436,11.5ZM11.793,4.179A5.712,5.712,0,0,0,6.653,6.99a.53.53,0,0,0,.12.717L8.3,8.867a.529.529,0,0,0,.735-.094c.788-1,1.328-1.579,2.527-1.579.9,0,2.015.58,2.015,1.453,0,.66-.545,1-1.435,1.5-1.037.582-2.41,1.305-2.41,3.116v.176a.529.529,0,0,0,.529.529h2.47a.529.529,0,0,0,.529-.529v-.059c0-1.255,3.668-1.307,3.668-4.7C16.931,6.119,14.278,4.179,11.793,4.179ZM11.5,15.115a2.029,2.029,0,1,0,2.029,2.029A2.031,2.031,0,0,0,11.5,15.115Z" transform="translate(-0.563 -0.563)" fill="#bebebe"/>
</svg>
